<svg width="23" height="26" viewBox="0 0 23 26" fill="none" xmlns="http://www.w3.org/2000/svg">
<path d="M1.63647 21.7888C1.26004 21.7888 0.955826 21.6762 0.723814 21.4509C0.491271 21.2261 0.375 20.95 0.375 20.6227C0.375 20.2958 0.491271 20.0197 0.723814 19.7944C0.955826 19.5696 1.26004 19.4572 1.63647 19.4572H3.19578V10.5617C3.19578 8.82327 3.75431 7.25369 4.87136 5.85294C5.98842 4.45219 7.46517 3.56776 9.30162 3.19966V2.34051C9.30162 1.82909 9.50072 1.39449 9.89891 1.03669C10.2971 0.678898 10.7837 0.5 11.3587 0.5C11.9337 0.5 12.4202 0.678898 12.8184 1.03669C13.2166 1.39449 13.4157 1.82909 13.4157 2.34051V3.19966C15.2522 3.56776 16.7345 4.45219 17.8627 5.85294C18.9909 7.25369 19.555 8.82327 19.555 10.5617V19.4572H21.1143C21.4685 19.4572 21.7671 19.5696 22.0103 19.7944C22.2534 20.0197 22.375 20.2958 22.375 20.6227C22.375 20.95 22.2534 21.2261 22.0103 21.4509C21.7671 21.6762 21.4685 21.7888 21.1143 21.7888H1.63647ZM11.3587 25.5C10.6287 25.5 9.99262 25.2546 9.45055 24.7638C8.90848 24.273 8.63744 23.6801 8.63744 22.9851H14.0799C14.0799 23.6801 13.8144 24.273 13.2835 24.7638C12.7526 25.2546 12.111 25.5 11.3587 25.5Z" fill="#F9BF51"/>
</svg>
