<svg width="22" height="22" viewBox="0 0 22 22" fill="none" xmlns="http://www.w3.org/2000/svg">
<path d="M10.9997 1.60419C11.7606 1.60414 12.4928 1.89528 13.0459 2.41789C13.599 2.94049 13.9312 3.65495 13.9743 4.41469L13.9788 4.58335H18.7913C18.9655 4.58341 19.1332 4.64958 19.2605 4.7685C19.3878 4.88741 19.4652 5.05021 19.477 5.22399C19.4889 5.39778 19.4344 5.56959 19.3244 5.70471C19.2145 5.83983 19.0574 5.92819 18.8848 5.95194L18.7913 5.95835H18.0617L16.8883 17.8934C16.8296 18.4884 16.5612 19.0431 16.1312 19.4585C15.7011 19.8739 15.1374 20.123 14.5408 20.1612L14.3794 20.1667H7.61992C7.02176 20.1667 6.4431 19.9539 5.98735 19.5665C5.53159 19.1791 5.22845 18.6423 5.13209 18.0519L5.11101 17.8924L3.93676 5.95835H3.20801C3.04187 5.95835 2.88136 5.89818 2.75615 5.78898C2.63095 5.67979 2.54952 5.52895 2.52692 5.36435L2.52051 5.27085C2.52051 5.10472 2.58068 4.94421 2.68988 4.819C2.79907 4.69379 2.94992 4.61236 3.11451 4.58977L3.20801 4.58335H8.02051C8.02051 3.79323 8.33438 3.03547 8.89309 2.47676C9.45179 1.91806 10.2096 1.60419 10.9997 1.60419ZM16.6803 5.95835H5.31817L6.47959 17.7577C6.50531 18.021 6.62133 18.2672 6.80796 18.4547C6.9946 18.6422 7.24035 18.7593 7.50351 18.7862L7.61992 18.7917H14.3794C14.9294 18.7917 15.396 18.4021 15.5023 17.8732L15.5207 17.7577L16.6793 5.95835H16.6803ZM12.6038 8.47919C12.77 8.47919 12.9305 8.53936 13.0557 8.64856C13.1809 8.75775 13.2623 8.9086 13.2849 9.07319L13.2913 9.16669V15.5834C13.2913 15.7575 13.2251 15.9252 13.1062 16.0525C12.9873 16.1798 12.8245 16.2572 12.6507 16.269C12.4769 16.2809 12.3051 16.2264 12.17 16.1165C12.0349 16.0065 11.9465 15.8494 11.9228 15.6769L11.9163 15.5834V9.16669C11.9163 8.98435 11.9888 8.80948 12.1177 8.68055C12.2466 8.55162 12.4215 8.47919 12.6038 8.47919ZM9.39551 8.47919C9.56164 8.47919 9.72215 8.53936 9.84736 8.64856C9.97257 8.75775 10.054 8.9086 10.0766 9.07319L10.083 9.16669V15.5834C10.083 15.7575 10.0168 15.9252 9.89787 16.0525C9.77895 16.1798 9.61615 16.2572 9.44237 16.269C9.26858 16.2809 9.09677 16.2264 8.96165 16.1165C8.82653 16.0065 8.73817 15.8494 8.71442 15.6769L8.70801 15.5834V9.16669C8.70801 8.98435 8.78044 8.80948 8.90937 8.68055C9.0383 8.55162 9.21317 8.47919 9.39551 8.47919ZM10.9997 2.97919C10.5971 2.9792 10.2092 3.13059 9.91307 3.40331C9.61692 3.67603 9.43413 4.05013 9.40101 4.45135L9.39551 4.58335H12.6038C12.6038 4.1579 12.4348 3.74988 12.134 3.44904C11.8332 3.1482 11.4251 2.97919 10.9997 2.97919Z" fill="#244264"/>
</svg>
