<svg width="15" height="15" viewBox="0 0 15 15" fill="none" xmlns="http://www.w3.org/2000/svg">
<path d="M14.84 6.38579C14.7698 6.29651 14.6797 6.22431 14.5767 6.17476C14.4738 6.12521 14.3607 6.09962 14.2461 6.09997H12.1677V4.47706C12.1674 4.28734 12.0909 4.10545 11.9549 3.9713C11.8189 3.83714 11.6344 3.76168 11.442 3.76147H7.16276L6.60479 2.4403C6.54989 2.30976 6.45693 2.19823 6.3377 2.11985C6.21846 2.04146 6.07831 1.99975 5.93502 2H0.725594C0.533224 2.00022 0.348796 2.07569 0.212769 2.20984C0.0767427 2.34399 0.000224349 2.52587 0 2.71559V13C0 13.5523 0.447715 14 1 14H12.4304C12.888 14 13.2873 13.6893 13.3997 13.2457L14.9771 7.02333C15.0052 6.9138 15.0075 6.79937 14.9837 6.68884C14.9599 6.57831 14.9108 6.47464 14.84 6.38579ZM1.00467 13.0092V2.99083H5.74896L6.49305 4.7523H11.1631V6.09997H3.81735C3.64924 6.09976 3.4859 6.15507 3.35339 6.25709C3.22087 6.35911 3.12682 6.50196 3.08623 6.66285L1.47759 13.0092H1.00467ZM12.4241 13.0092H2.51319L4.01345 7.09079H13.9244L12.4241 13.0092Z" fill="#244264"/>
</svg>
