<svg width="30" height="30" viewBox="0 0 30 30" fill="none" xmlns="http://www.w3.org/2000/svg">
<g filter="url(#filter0_d_150_961)">
<path d="M25 0.5H5C3.625 0.5 2.5 1.4375 2.5 2.58333V23.4167C2.5 24.5625 3.625 25.5 5 25.5H25C26.375 25.5 27.5 24.5625 27.5 23.4167V2.58333C27.5 1.4375 26.375 0.5 25 0.5ZM10 21.3333C10 21.9062 9.4375 22.375 8.75 22.375H6.25C5.5625 22.375 5 21.9062 5 21.3333V20.8125C5 20.2396 5.5625 19.7708 6.25 19.7708H8.75C9.4375 19.7708 10 20.2396 10 20.8125V21.3333ZM10 17.1667C10 17.7396 9.4375 18.2083 8.75 18.2083H6.25C5.5625 18.2083 5 17.7396 5 17.1667V16.6458C5 16.0729 5.5625 15.6042 6.25 15.6042H8.75C9.4375 15.6042 10 16.0729 10 16.6458V17.1667ZM10 13C10 13.5729 9.4375 14.0417 8.75 14.0417H6.25C5.5625 14.0417 5 13.5729 5 13V12.4792C5 11.9062 5.5625 11.4375 6.25 11.4375H8.75C9.4375 11.4375 10 11.9062 10 12.4792V13ZM17.5 21.3333C17.5 21.9062 16.9375 22.375 16.25 22.375H13.75C13.0625 22.375 12.5 21.9062 12.5 21.3333V20.8125C12.5 20.2396 13.0625 19.7708 13.75 19.7708H16.25C16.9375 19.7708 17.5 20.2396 17.5 20.8125V21.3333ZM17.5 17.1667C17.5 17.7396 16.9375 18.2083 16.25 18.2083H13.75C13.0625 18.2083 12.5 17.7396 12.5 17.1667V16.6458C12.5 16.0729 13.0625 15.6042 13.75 15.6042H16.25C16.9375 15.6042 17.5 16.0729 17.5 16.6458V17.1667ZM17.5 13C17.5 13.5729 16.9375 14.0417 16.25 14.0417H13.75C13.0625 14.0417 12.5 13.5729 12.5 13V12.4792C12.5 11.9062 13.0625 11.4375 13.75 11.4375H16.25C16.9375 11.4375 17.5 11.9062 17.5 12.4792V13ZM25 21.3333C25 21.9062 24.4375 22.375 23.75 22.375H21.25C20.5625 22.375 20 21.9062 20 21.3333V20.8125C20 20.2396 20.5625 19.7708 21.25 19.7708H23.75C24.4375 19.7708 25 20.2396 25 20.8125V21.3333ZM25 17.1667C25 17.7396 24.4375 18.2083 23.75 18.2083H21.25C20.5625 18.2083 20 17.7396 20 17.1667V16.6458C20 16.0729 20.5625 15.6042 21.25 15.6042H23.75C24.4375 15.6042 25 16.0729 25 16.6458V17.1667ZM25 13C25 13.5729 24.4375 14.0417 23.75 14.0417H21.25C20.5625 14.0417 20 13.5729 20 13V12.4792C20 11.9062 20.5625 11.4375 21.25 11.4375H23.75C24.4375 11.4375 25 11.9062 25 12.4792V13ZM25 8.3125C25 8.88542 24.4375 9.35417 23.75 9.35417H6.25C5.5625 9.35417 5 8.88542 5 8.3125V4.14583C5 3.57292 5.5625 3.10417 6.25 3.10417H23.75C24.4375 3.10417 25 3.57292 25 4.14583V8.3125Z" fill="#F3F4F9"/>
</g>
<defs>
<filter id="filter0_d_150_961" x="0.5" y="0.5" width="29" height="29" filterUnits="userSpaceOnUse" color-interpolation-filters="sRGB">
<feFlood flood-opacity="0" result="BackgroundImageFix"/>
<feColorMatrix in="SourceAlpha" type="matrix" values="0 0 0 0 0 0 0 0 0 0 0 0 0 0 0 0 0 0 127 0" result="hardAlpha"/>
<feOffset dy="2"/>
<feGaussianBlur stdDeviation="1"/>
<feComposite in2="hardAlpha" operator="out"/>
<feColorMatrix type="matrix" values="0 0 0 0 0.145098 0 0 0 0 0.145098 0 0 0 0 0.145098 0 0 0 1 0"/>
<feBlend mode="normal" in2="BackgroundImageFix" result="effect1_dropShadow_150_961"/>
<feBlend mode="normal" in="SourceGraphic" in2="effect1_dropShadow_150_961" result="shape"/>
</filter>
</defs>
</svg>
