<svg width="24" height="24" viewBox="0 0 24 24" version="1.1" xmlns="http://www.w3.org/2000/svg">
    <g transform="matrix(0.946728,0,0,0.946728,1.58599,1.58599)">
        <g transform="matrix(0.0556558,0,0,0.0556558,-3.25238,-3.25966)">
            <path
                d="M290.211,360.727C284.977,361.215 279.722,360.034 275.2,357.352C271.896,353.96 270.312,349.251 270.895,344.552C271.017,340.64 271.484,336.746 272.291,332.916C273.072,328.522 274.081,324.172 275.316,319.883L289.047,272.639C290.463,267.976 291.399,263.18 291.84,258.326C291.84,253.09 292.538,249.482 292.538,247.388C292.83,238.055 288.845,229.099 281.716,223.068C272.947,216.336 262.027,213.027 250.996,213.759C243.091,213.878 235.247,215.172 227.723,217.599C219.5,220.159 210.85,223.223 201.774,226.792L197.818,242.152C200.494,241.221 203.753,240.174 207.476,239.01C211.028,237.958 214.71,237.409 218.414,237.381C223.61,236.818 228.84,238.094 233.192,240.988C236.148,244.515 237.535,249.097 237.032,253.672C237.019,257.585 236.59,261.486 235.752,265.308C234.937,269.381 233.89,273.686 232.61,278.224L218.763,325.7C217.647,330.113 216.754,334.579 216.087,339.082C215.543,342.937 215.271,346.825 215.272,350.718C215.215,360.115 219.512,369.009 226.908,374.805C235.812,381.642 246.888,385.031 258.093,384.347C265.983,384.509 273.846,383.369 281.366,380.972C287.96,378.722 296.765,375.503 307.781,371.314L311.505,356.652C308.521,357.89 305.448,358.901 302.312,359.677C298.346,360.583 294.274,360.935 290.211,360.727Z"
                style="fill:rgb(0,151,169);fill-rule:nonzero;"
            />
            <path
                d="M304.756,136.727C298.423,130.911 290.079,127.782 281.483,128C272.892,127.806 264.556,130.932 258.21,136.727C246.578,146.757 245.279,164.318 255.31,175.951C256.204,176.988 257.173,177.957 258.21,178.851C271.462,190.704 291.504,190.704 304.755,178.851C316.387,168.722 317.606,151.082 307.477,139.45C306.635,138.481 305.725,137.571 304.756,136.727Z"
                style="fill:rgb(0,151,169);fill-rule:nonzero;"
            />
        </g>
        <g transform="matrix(0.0429688,0,0,0.0429688,0,0)">
            <path
                d="M256,0C114.615,0 0,114.615 0,256C0,397.385 114.615,512 256,512C397.385,512 512,397.385 512,256C512,114.615 397.385,0 256,0ZM256,488.727C127.468,488.727 23.273,384.532 23.273,256C23.273,127.468 127.468,23.273 256,23.273C384.532,23.273 488.727,127.468 488.727,256C488.727,384.532 384.532,488.727 256,488.727Z"
                style="fill:rgb(0,151,169);fill-rule:nonzero;"
            />
        </g>
    </g>
</svg>
