<svg width="22" height="22" viewBox="0 0 22 22" fill="none" xmlns="http://www.w3.org/2000/svg">
<path d="M17.875 9.625H16.5V6.875C16.5 5.41631 15.9205 4.01736 14.8891 2.98591C13.8576 1.95446 12.4587 1.375 11 1.375C9.54131 1.375 8.14236 1.95446 7.11091 2.98591C6.07946 4.01736 5.5 5.41631 5.5 6.875V9.625H4.125L2.75 11V19.25L4.125 20.625H17.875L19.25 19.25V11L17.875 9.625ZM6.875 6.875C6.875 5.78098 7.3096 4.73177 8.08318 3.95818C8.85677 3.1846 9.90598 2.75 11 2.75C12.094 2.75 13.1432 3.1846 13.9168 3.95818C14.6904 4.73177 15.125 5.78098 15.125 6.875V9.625H6.875V6.875ZM17.875 19.25H4.125V11H17.875V19.25Z" fill="#3E3E3E"/>
</svg>
