<svg width="22" height="22" viewBox="0 0 22 22" fill="none" xmlns="http://www.w3.org/2000/svg">
<path d="M10.9978 2.9777C11.0199 3.19533 10.9547 3.41284 10.8165 3.5824C10.6783 3.75196 10.4784 3.85969 10.2608 3.8819C8.91564 4.02158 7.63762 4.53953 6.57479 5.37573C5.51195 6.21193 4.7078 7.33216 4.25549 8.60662C3.80318 9.88109 3.72123 11.2576 4.01914 12.5768C4.31705 13.8959 4.98263 15.1036 5.93875 16.06C6.89487 17.0164 8.1024 17.6823 9.42145 17.9806C10.7405 18.2789 12.1171 18.1973 13.3917 17.7453C14.6662 17.2934 15.7867 16.4896 16.6232 15.4269C17.4597 14.3643 17.978 13.0865 18.1181 11.7414C18.1434 11.5263 18.2524 11.3298 18.4215 11.1943C18.5905 11.0589 18.806 10.9953 19.0215 11.0174C19.237 11.0395 19.4352 11.1455 19.5732 11.3124C19.7112 11.4794 19.778 11.6939 19.7593 11.9097C19.5874 13.5652 18.95 15.1381 17.9208 16.4461C16.8916 17.7541 15.5129 18.7437 13.9443 19.3002C12.3757 19.8567 10.6816 19.9573 9.05816 19.5904C7.43475 19.2234 5.94855 18.404 4.7718 17.2269C3.59505 16.0499 2.77593 14.5635 2.40937 12.9401C2.0428 11.3166 2.14379 9.62242 2.70065 8.05398C3.2575 6.48554 4.24741 5.107 5.55567 4.07812C6.86392 3.04925 8.43695 2.41217 10.0925 2.2407C10.2003 2.22959 10.3093 2.23985 10.4132 2.27088C10.517 2.30191 10.6138 2.35312 10.6979 2.42156C10.7819 2.49001 10.8517 2.57436 10.9032 2.66979C10.9546 2.76521 10.9868 2.86985 10.9978 2.9777Z" fill="#3E3E3E"/>
<path d="M12.1197 2.904C12.1708 2.69137 12.3043 2.50774 12.4908 2.39347C12.6772 2.27919 12.9014 2.24363 13.1141 2.2946C13.531 2.3936 13.9358 2.5234 14.3274 2.6796C14.4308 2.71769 14.5254 2.77609 14.6059 2.85136C14.6863 2.92663 14.7508 3.01724 14.7957 3.11784C14.8405 3.21845 14.8647 3.32702 14.8669 3.43715C14.8692 3.54728 14.8493 3.65673 14.8085 3.75906C14.7678 3.86138 14.7069 3.95451 14.6296 4.03294C14.5522 4.11138 14.46 4.17353 14.3582 4.21573C14.2565 4.25794 14.1473 4.27935 14.0372 4.27869C13.927 4.27803 13.8181 4.25532 13.7169 4.2119C13.3979 4.0854 13.0679 3.9809 12.7302 3.8995C12.6248 3.8743 12.5254 3.82859 12.4377 3.76498C12.35 3.70137 12.2757 3.6211 12.219 3.52876C12.1623 3.43642 12.1243 3.33381 12.1073 3.2268C12.0903 3.1198 12.0945 3.01048 12.1197 2.9051V2.904Z" fill="#3E3E3E"/>
<path d="M19.3203 7.67141C19.2394 7.46807 19.0809 7.30522 18.8799 7.21868C18.6789 7.13214 18.4517 7.129 18.2484 7.20996C18.045 7.29092 17.8822 7.44934 17.7956 7.65036C17.7091 7.85139 17.706 8.07857 17.7869 8.28191C17.9145 8.60091 18.019 8.93091 18.1004 9.26971C18.1515 9.48253 18.285 9.66636 18.4716 9.78074C18.564 9.83738 18.6666 9.87527 18.7736 9.89224C18.8807 9.90921 18.99 9.90494 19.0954 9.87966C19.2008 9.85438 19.3001 9.80859 19.3878 9.74491C19.4755 9.68123 19.5498 9.6009 19.6064 9.50851C19.663 9.41612 19.7009 9.31348 19.7179 9.20645C19.7349 9.09942 19.7306 8.99009 19.7053 8.88471C19.6063 8.47156 19.4776 8.06608 19.3203 7.67141Z" fill="#3E3E3E"/>
<path d="M15.7189 4.3186C15.8626 4.15365 16.0659 4.05252 16.2842 4.03747C16.5024 4.02241 16.7177 4.09465 16.8827 4.2383C17.2204 4.532 17.5361 4.851 17.8265 5.192C17.9628 5.35925 18.0281 5.57321 18.0084 5.78803C17.9888 6.00285 17.8859 6.20145 17.7216 6.34126C17.5573 6.48108 17.3448 6.55099 17.1296 6.53603C16.9144 6.52106 16.7137 6.42241 16.5703 6.2612C16.3335 5.98274 16.0761 5.72241 15.8003 5.4824C15.6352 5.33886 15.5339 5.13561 15.5186 4.91736C15.5033 4.69911 15.5754 4.48373 15.7189 4.3186Z" fill="#3E3E3E"/>
<path d="M11 6.325C11 6.1062 10.9131 5.89635 10.7583 5.74164C10.6036 5.58692 10.3938 5.5 10.175 5.5C9.95617 5.5 9.74633 5.58692 9.59161 5.74164C9.4369 5.89635 9.34998 6.1062 9.34998 6.325V11.825C9.34998 12.2815 9.71958 12.65 10.175 12.65H13.475C13.6938 12.65 13.9036 12.5631 14.0583 12.4084C14.2131 12.2536 14.3 12.0438 14.3 11.825C14.3 11.6062 14.2131 11.3964 14.0583 11.2416C13.9036 11.0869 13.6938 11 13.475 11H11V6.325Z" fill="#3E3E3E"/>
</svg>
