<svg width="32" height="32" viewBox="0 0 32 32" fill="none" xmlns="http://www.w3.org/2000/svg">
<path d="M26.889 26.6665H5.11101C4.59796 26.6665 4.09791 26.5051 3.68172 26.2051C3.26552 25.9051 2.95428 25.4817 2.7921 24.995C2.62991 24.5082 2.62499 23.9828 2.77805 23.4931C2.9311 23.0034 3.23437 22.5743 3.64488 22.2665L4.74288 21.443C5.1561 21.1342 5.43334 20.6771 5.51621 20.1679L6.89381 11.8053C7.23016 9.6308 8.33352 7.64846 10.0044 6.21676C11.6752 4.78506 13.8032 3.99852 16.0036 3.99939C18.2039 4.00026 20.3313 4.78848 22.001 6.2215C23.6707 7.65452 24.7725 9.63773 25.1071 11.8125L26.4838 20.1679C26.5667 20.6771 26.8439 21.1342 27.2571 21.443L28.3555 22.2665C28.7661 22.5743 29.0694 23.0035 29.2225 23.4932C29.3755 23.983 29.3706 24.5085 29.2083 24.9953C29.0461 25.4821 28.7347 25.9054 28.3184 26.2054C27.9021 26.5054 27.4019 26.6667 26.8888 26.6665H26.889ZM16.001 5.33321C14.1161 5.32406 12.2909 5.99451 10.8601 7.22168C9.42935 8.44884 8.48871 10.1505 8.21061 12.0149L6.83201 20.3846C6.6937 21.2331 6.23161 21.9947 5.54301 22.5093L4.44468 23.3332C4.25805 23.4731 4.12018 23.6682 4.0506 23.8908C3.98102 24.1134 3.98327 24.3523 4.05703 24.5735C4.13078 24.7948 4.27231 24.9873 4.46154 25.1236C4.65077 25.2599 4.87811 25.3333 5.11135 25.3332H26.8893C27.1225 25.3332 27.3498 25.2599 27.539 25.1236C27.7281 24.9872 27.8696 24.7948 27.9433 24.5736C28.0171 24.3524 28.0194 24.1136 27.9498 23.8911C27.8803 23.6685 27.7425 23.4735 27.556 23.3335L26.4573 22.5093C25.7687 21.9947 25.3067 21.2331 25.1683 20.3846L23.7903 12.022C23.5136 10.1566 22.5738 8.45353 21.1431 7.22498C19.7124 5.99644 17.8868 5.32479 16.001 5.33321Z" fill="#A3A3A3"/>
<path d="M17.9999 5.57325C17.8231 5.57325 17.6535 5.50301 17.5285 5.37799C17.4035 5.25297 17.3333 5.0834 17.3333 4.90658V3.99992C17.3333 3.6463 17.1928 3.30716 16.9427 3.05711C16.6927 2.80706 16.3535 2.66659 15.9999 2.66659C15.6463 2.66659 15.3072 2.80706 15.0571 3.05711C14.8071 3.30716 14.6666 3.6463 14.6666 3.99992V4.90658C14.6666 5.0834 14.5963 5.25297 14.4713 5.37799C14.3463 5.50301 14.1767 5.57325 13.9999 5.57325C13.8231 5.57325 13.6535 5.50301 13.5285 5.37799C13.4035 5.25297 13.3333 5.0834 13.3333 4.90658V3.99992C13.3333 3.29267 13.6142 2.6144 14.1143 2.1143C14.6144 1.6142 15.2927 1.33325 15.9999 1.33325C16.7072 1.33325 17.3854 1.6142 17.8855 2.1143C18.3856 2.6144 18.6666 3.29267 18.6666 3.99992V4.90658C18.6666 5.0834 18.5963 5.25297 18.4713 5.37799C18.3463 5.50301 18.1767 5.57325 17.9999 5.57325Z" fill="#A3A3A3"/>
<path d="M15.9999 30.6666C14.7627 30.6652 13.5765 30.1731 12.7016 29.2982C11.8267 28.4234 11.3346 27.2372 11.3333 25.9999C11.3333 25.8231 11.4035 25.6535 11.5285 25.5285C11.6535 25.4035 11.8231 25.3333 11.9999 25.3333C12.1767 25.3333 12.3463 25.4035 12.4713 25.5285C12.5963 25.6535 12.6666 25.8231 12.6666 25.9999C12.6666 26.884 13.0178 27.7318 13.6429 28.3569C14.268 28.9821 15.1159 29.3332 15.9999 29.3332C16.884 29.3332 17.7318 28.9821 18.3569 28.3569C18.9821 27.7318 19.3333 26.884 19.3333 25.9999C19.3333 25.8231 19.4035 25.6535 19.5285 25.5285C19.6535 25.4035 19.8231 25.3333 19.9999 25.3333C20.1767 25.3333 20.3463 25.4035 20.4713 25.5285C20.5963 25.6535 20.6666 25.8231 20.6666 25.9999C20.6652 27.2372 20.1731 28.4234 19.2982 29.2982C18.4234 30.1731 17.2372 30.6652 15.9999 30.6666Z" fill="#A3A3A3"/>
</svg>
