<svg width="28" height="31" viewBox="0 0 28 31" fill="none" xmlns="http://www.w3.org/2000/svg">
<g filter="url(#filter0_d_161_598)">
<path d="M26 4.5C26 3.96957 25.7893 3.46086 25.4142 3.08579C25.0391 2.71071 24.5304 2.5 24 2.5H20V0.5H18V2.5H10V0.5H8V2.5H4C3.46957 2.5 2.96086 2.71071 2.58579 3.08579C2.21071 3.46086 2 3.96957 2 4.5V24.5C2 25.0304 2.21071 25.5391 2.58579 25.9142C2.96086 26.2893 3.46957 26.5 4 26.5H8V24.5H4V4.5H8V6.5H10V4.5H18V6.5H20V4.5H24V10.5H26V4.5Z" fill="#F3F4F9"/>
</g>
<defs>
<filter id="filter0_d_161_598" x="0" y="0.5" width="28" height="30" filterUnits="userSpaceOnUse" color-interpolation-filters="sRGB">
<feFlood flood-opacity="0" result="BackgroundImageFix"/>
<feColorMatrix in="SourceAlpha" type="matrix" values="0 0 0 0 0 0 0 0 0 0 0 0 0 0 0 0 0 0 127 0" result="hardAlpha"/>
<feOffset dy="2"/>
<feGaussianBlur stdDeviation="1"/>
<feComposite in2="hardAlpha" operator="out"/>
<feColorMatrix type="matrix" values="0 0 0 0 0.145098 0 0 0 0 0.145098 0 0 0 0 0.145098 0 0 0 1 0"/>
<feBlend mode="normal" in2="BackgroundImageFix" result="effect1_dropShadow_161_598"/>
<feBlend mode="normal" in="SourceGraphic" in2="effect1_dropShadow_161_598" result="shape"/>
</filter>
</defs>
</svg>
