<svg width="30" height="30" viewBox="0 0 30 30" fill="none" xmlns="http://www.w3.org/2000/svg">
<g filter="url(#filter0_d_161_588)">
<path d="M25.4574 13.8249C25.2534 13.5968 25.1409 13.3036 25.1409 13C25.1409 12.6964 25.2534 12.4032 25.4574 12.1751L27.086 10.3754C27.2654 10.1787 27.3769 9.9313 27.4043 9.66859C27.4317 9.40588 27.3737 9.14138 27.2386 8.91306L24.694 4.58864C24.5603 4.36058 24.3567 4.1798 24.1122 4.07207C23.8677 3.96435 23.5949 3.93518 23.3326 3.98873L20.9406 4.46366C20.6362 4.52544 20.3193 4.47565 20.0498 4.32368C19.7802 4.17171 19.5766 3.92809 19.4774 3.63877L18.7013 1.35158C18.6159 1.10334 18.4533 0.887728 18.2364 0.73522C18.0195 0.582712 17.7593 0.501023 17.4925 0.5017H12.4032C12.1257 0.487474 11.8512 0.562849 11.6214 0.716313C11.3917 0.869777 11.2194 1.09289 11.1308 1.35158L10.4183 3.63877C10.3191 3.92809 10.1155 4.17171 9.84593 4.32368C9.57637 4.47565 9.25951 4.52544 8.95515 4.46366L6.49953 3.98873C6.25086 3.95421 5.99734 3.99275 5.77093 4.09951C5.54451 4.20627 5.35532 4.37646 5.2272 4.58864L2.68252 8.91306C2.54404 9.13884 2.48177 9.40185 2.50462 9.66448C2.52747 9.92712 2.63427 10.1759 2.80975 10.3754L4.42562 12.1751C4.6296 12.4032 4.7421 12.6964 4.7421 13C4.7421 13.3036 4.6296 13.5968 4.42562 13.8249L2.80975 15.6246C2.63427 15.8241 2.52747 16.0729 2.50462 16.3355C2.48177 16.5982 2.54404 16.8612 2.68252 17.0869L5.2272 21.4114C5.36091 21.6394 5.56452 21.8202 5.80897 21.9279C6.05343 22.0357 6.32627 22.0648 6.5886 22.0113L8.98059 21.5363C9.28496 21.4746 9.60182 21.5244 9.87137 21.6763C10.1409 21.8283 10.3445 22.0719 10.4438 22.3612L11.2199 24.6484C11.3084 24.9071 11.4807 25.1302 11.7105 25.2837C11.9402 25.4371 12.2148 25.5125 12.4922 25.4983H17.5816C17.8483 25.499 18.1085 25.4173 18.3254 25.2648C18.5423 25.1123 18.705 24.8967 18.7903 24.6484L19.5664 22.3612C19.6657 22.0719 19.8693 21.8283 20.1389 21.6763C20.4084 21.5244 20.7253 21.4746 21.0296 21.5363L23.4216 22.0113C23.684 22.0648 23.9568 22.0357 24.2013 21.9279C24.4457 21.8202 24.6493 21.6394 24.783 21.4114L27.3277 17.0869C27.4628 16.8586 27.5208 16.5941 27.4934 16.3314C27.4659 16.0687 27.3545 15.8213 27.175 15.6246L25.4574 13.8249ZM23.5616 15.4997L24.5795 16.6245L22.9509 19.3991L21.4495 19.0992C20.5331 18.9152 19.5799 19.0681 18.7707 19.5289C17.9615 19.9897 17.3528 20.7262 17.0599 21.5988L16.5765 22.9986H13.3193L12.8612 21.5738C12.5684 20.7013 11.9596 19.9647 11.1504 19.5039C10.3413 19.0431 9.38802 18.8902 8.47166 19.0742L6.9703 19.3741L5.31626 16.612L6.33413 15.4872C6.96006 14.7997 7.30611 13.9098 7.30611 12.9875C7.30611 12.0652 6.96006 11.1753 6.33413 10.4878L5.31626 9.36299L6.94485 6.61337L8.44621 6.91333C9.36258 7.09733 10.3158 6.94442 11.125 6.48363C11.9342 6.02284 12.543 5.28625 12.8358 4.41367L13.3193 3.00136H16.5765L17.0599 4.42617C17.3528 5.29875 17.9615 6.03534 18.7707 6.49613C19.5799 6.95692 20.5331 7.10983 21.4495 6.92583L22.9509 6.62587L24.5795 9.40049L23.5616 10.5253C22.9427 11.2112 22.6009 12.096 22.6009 13.0125C22.6009 13.929 22.9427 14.8138 23.5616 15.4997ZM14.9479 8.00068C13.9413 8.00068 12.9573 8.29389 12.1204 8.84322C11.2834 9.39255 10.6311 10.1733 10.2459 11.0868C9.86071 12.0003 9.75992 13.0055 9.9563 13.9753C10.1527 14.9451 10.6374 15.8359 11.3491 16.5351C12.0609 17.2342 12.9677 17.7104 13.955 17.9033C14.9422 18.0962 15.9655 17.9972 16.8955 17.6188C17.8254 17.2404 18.6203 16.5996 19.1795 15.7775C19.7387 14.9553 20.0372 13.9888 20.0372 13C20.0372 11.6741 19.501 10.4025 18.5466 9.46495C17.5921 8.52739 16.2976 8.00068 14.9479 8.00068ZM14.9479 15.4997C14.4446 15.4997 13.9526 15.3531 13.5341 15.0784C13.1156 14.8037 12.7895 14.4133 12.5969 13.9566C12.4043 13.4998 12.3539 12.9972 12.4521 12.5123C12.5503 12.0275 12.7926 11.5821 13.1485 11.2325C13.5044 10.8829 13.9578 10.6448 14.4514 10.5484C14.945 10.4519 15.4567 10.5014 15.9217 10.6906C16.3866 10.8798 16.7841 11.2002 17.0637 11.6113C17.3433 12.0223 17.4925 12.5056 17.4925 13C17.4925 13.663 17.2244 14.2987 16.7472 14.7675C16.27 15.2363 15.6228 15.4997 14.9479 15.4997Z" fill="#F3F4F9"/>
</g>
<defs>
<filter id="filter0_d_161_588" x="0.5" y="0.5" width="29" height="29" filterUnits="userSpaceOnUse" color-interpolation-filters="sRGB">
<feFlood flood-opacity="0" result="BackgroundImageFix"/>
<feColorMatrix in="SourceAlpha" type="matrix" values="0 0 0 0 0 0 0 0 0 0 0 0 0 0 0 0 0 0 127 0" result="hardAlpha"/>
<feOffset dy="2"/>
<feGaussianBlur stdDeviation="1"/>
<feComposite in2="hardAlpha" operator="out"/>
<feColorMatrix type="matrix" values="0 0 0 0 0.145098 0 0 0 0 0.145098 0 0 0 0 0.145098 0 0 0 1 0"/>
<feBlend mode="normal" in2="BackgroundImageFix" result="effect1_dropShadow_161_588"/>
<feBlend mode="normal" in="SourceGraphic" in2="effect1_dropShadow_161_588" result="shape"/>
</filter>
</defs>
</svg>
