<svg width="25" height="25" viewBox="0 0 25 25" fill="none" xmlns="http://www.w3.org/2000/svg">
<path opacity="0.35" d="M11.375 23.1816C10.479 23.1816 9.75 22.4526 9.75 21.5566V18.75H5.20947C5.17505 18.75 5.14111 18.749 5.10718 18.7468C2.91895 18.6912 1.14575 16.8706 1.14575 14.6689C1.14575 13.0029 2.15454 11.5417 3.61987 10.915C3.70166 10.2556 3.92822 9.61572 4.2981 9.00293C5.00366 7.83276 6.13843 7.01489 7.41162 6.75903C7.73169 6.69482 8.05835 6.66211 8.38159 6.66211C8.39917 6.66211 8.41675 6.66211 8.43433 6.66235C8.89893 5.50342 9.69971 4.50952 10.76 3.79614C11.7939 3.10059 12.9946 2.73291 14.2327 2.73291C14.8513 2.73291 15.4758 2.82422 16.0889 3.00391C17.9302 3.54321 19.427 4.94702 20.0928 6.75879C20.3218 7.38184 20.4553 8.02783 20.4917 8.67358C20.9668 8.73901 21.4358 8.87305 21.8928 9.07422C23.2371 9.66675 24.2715 10.863 24.6606 12.2747C25.092 13.8398 24.7925 15.4648 23.8394 16.7332C22.9141 17.9641 21.5083 18.6958 19.9768 18.7454C19.9363 18.7485 19.8958 18.75 19.8552 18.75H16.2344V21.5566C16.2344 22.4526 15.5054 23.1816 14.6094 23.1816H11.375Z" fill="#252525"/>
<path d="M10.875 22.6816C9.979 22.6816 9.25 21.9526 9.25 21.0566V18.25H4.70947C4.67505 18.25 4.64111 18.249 4.60718 18.2468C2.41895 18.1912 0.645752 16.3706 0.645752 14.1689C0.645752 12.5029 1.65454 11.0417 3.11987 10.415C3.20166 9.75562 3.42822 9.11572 3.7981 8.50293C4.50366 7.33276 5.63843 6.51489 6.91162 6.25903C7.23169 6.19482 7.55835 6.16211 7.88159 6.16211C7.89917 6.16211 7.91675 6.16211 7.93433 6.16235C8.39893 5.00342 9.19971 4.00952 10.26 3.29614C11.2939 2.60059 12.4946 2.23291 13.7327 2.23291C14.3513 2.23291 14.9758 2.32422 15.5889 2.50391C17.4302 3.04321 18.927 4.44702 19.5928 6.25879C19.8218 6.88184 19.9553 7.52783 19.9917 8.17358C20.4668 8.23901 20.9358 8.37305 21.3928 8.57422C22.7371 9.16675 23.7715 10.363 24.1606 11.7747C24.592 13.3398 24.2925 14.9648 23.3394 16.2332C22.4141 17.4641 21.0083 18.1958 19.4768 18.2454C19.4363 18.2485 19.3958 18.25 19.3552 18.25H15.7344V21.0566C15.7344 21.9526 15.0054 22.6816 14.1094 22.6816H10.875Z" fill="#F2F2F2"/>
<path d="M20.7383 10.0615C19.809 9.652 18.921 9.67875 18.153 9.95775C18.4575 9.00975 18.477 7.93325 18.0675 6.81925C17.5798 5.4925 16.4823 4.45875 15.1318 4.06325C12.1458 3.18875 9.4135 5.25125 9.12925 8.043C8.56275 7.79925 7.91175 7.7155 7.23175 7.85225C6.37375 8.02475 5.64325 8.5895 5.1895 9.342C4.671 10.2023 4.629 11.002 4.79875 11.7195C4.76925 11.7185 4.74025 11.715 4.7105 11.715C3.363 11.715 2.27075 12.8138 2.27075 14.169C2.27075 15.524 3.36275 16.6225 4.70975 16.623L4.7095 16.625H19.3553L19.355 16.6228C21.5383 16.5953 23.2293 14.511 22.594 12.2063C22.331 11.252 21.64 10.459 20.7383 10.0615Z" fill="#70BFFF"/>
<path d="M12.5 11.3594L9.59619 14.2638H11.2446V21.0567H12.4999H13.7553V14.2638H15.4037L12.5 11.3594Z" fill="#707CC0"/>
<path d="M14.1094 21.4317H10.875C10.668 21.4317 10.5 21.2637 10.5 21.0567V17H4.70947C4.69556 17 4.68188 16.9993 4.66821 16.9978C3.13574 16.9749 1.89575 15.7144 1.89575 14.169C1.89575 12.7295 2.97119 11.5379 4.35669 11.3624C4.27173 10.5965 4.44311 9.85356 4.86841 9.14848C5.39331 8.27788 6.22778 7.67143 7.15771 7.48466C7.71997 7.37163 8.28857 7.39116 8.82544 7.5396C9.08179 6.23466 9.8418 5.08403 10.9578 4.3333C12.2156 3.48711 13.7356 3.26323 15.2373 3.70341C16.6999 4.13188 17.8896 5.24834 18.4194 6.68999C18.7512 7.59233 18.8357 8.52861 18.6707 9.43217C19.4089 9.30327 20.1643 9.39922 20.8894 9.71831C21.8931 10.1607 22.6653 11.0535 22.9556 12.1067C23.2832 13.2957 23.0588 14.5259 22.3401 15.4822C21.6357 16.4192 20.5669 16.9695 19.4021 16.9971C19.3865 16.9991 19.3708 17 19.3552 17H14.4844V21.0567C14.4844 21.2637 14.3164 21.4317 14.1094 21.4317ZM11.25 20.6817H13.7344V16.625C13.7344 16.418 13.9023 16.25 14.1094 16.25H19.3147C19.3264 16.2488 19.3384 16.2481 19.3503 16.2478C20.2971 16.2359 21.1685 15.7925 21.7405 15.0315C22.3186 14.2625 22.498 13.2691 22.2324 12.306C22.0015 11.4678 21.3865 10.7571 20.5869 10.4046C19.8176 10.0657 19.0413 10.034 18.2812 10.3103C18.1465 10.3589 17.9961 10.3272 17.8931 10.2278C17.7898 10.1287 17.7522 9.97929 17.7961 9.84306C18.0959 8.90898 18.0681 7.908 17.7153 6.94878C17.2673 5.72929 16.2622 4.78496 15.0264 4.42314C13.7429 4.04716 12.446 4.23589 11.3765 4.95537C10.3149 5.66948 9.63183 6.80888 9.5022 8.0811C9.49023 8.19975 9.42212 8.30571 9.31933 8.36626C9.21606 8.42705 9.09033 8.43486 8.98096 8.3875C8.45825 8.1624 7.87891 8.10454 7.30566 8.22002C6.58154 8.36552 5.92725 8.84502 5.5105 9.53569C5.10303 10.2117 4.9895 10.8978 5.16382 11.6331C5.19067 11.7469 5.16309 11.8665 5.08911 11.9571C5.01514 12.0474 4.90283 12.1009 4.78638 12.0943L4.71045 12.0901C3.57202 12.0901 2.64575 13.0228 2.64575 14.169C2.64575 15.315 3.57178 16.2476 4.70996 16.2481C4.72266 16.2481 4.73535 16.2488 4.74805 16.25H10.875C11.082 16.25 11.25 16.418 11.25 16.625V20.6817Z" fill="#40396E"/>
</svg>
