<svg width="149" height="30" viewBox="0 0 149 30" fill="none" xmlns="http://www.w3.org/2000/svg">
<g filter="url(#filter0_d_127_1809)">
<path d="M13.7313 3.90471C13.7313 4.3006 13.7138 4.63708 13.6787 4.9142C13.6553 5.17812 13.6085 5.38928 13.5384 5.54764C13.48 5.70599 13.4098 5.82476 13.328 5.90394C13.2461 5.98312 13.1526 6.02271 13.0474 6.02271H5.62956V12.9113H12.5914C12.6967 12.9113 12.7902 12.9443 12.872 13.0103C12.9539 13.0762 13.024 13.1884 13.0825 13.3468C13.1526 13.5051 13.1994 13.7163 13.2228 13.9802C13.2578 14.2441 13.2754 14.574 13.2754 14.9699C13.2754 15.3658 13.2578 15.6958 13.2228 15.9597C13.1994 16.2236 13.1526 16.4413 13.0825 16.6129C13.024 16.7845 12.9539 16.9098 12.872 16.989C12.7902 17.0549 12.6967 17.088 12.5914 17.088H5.62956V26.629C5.62956 26.7742 5.59449 26.8996 5.52435 27.0051C5.4542 27.1107 5.32561 27.203 5.13855 27.2822C4.96319 27.3482 4.72938 27.401 4.4371 27.4406C4.14482 27.4802 3.77072 27.5 3.31478 27.5C2.87054 27.5 2.49642 27.4802 2.19246 27.4406C1.90018 27.401 1.66638 27.3482 1.49101 27.2822C1.31565 27.203 1.18706 27.1107 1.10522 27.0051C1.03507 26.8996 1 26.7742 1 26.629V3.40981C1 2.8292 1.12859 2.41351 1.3858 2.16277C1.65468 1.89885 1.98203 1.76688 2.36783 1.76688H13.0474C13.1526 1.76688 13.2461 1.80647 13.328 1.88565C13.4098 1.95159 13.48 2.07035 13.5384 2.24195C13.6085 2.40031 13.6553 2.61802 13.6787 2.89514C13.7138 3.17227 13.7313 3.50881 13.7313 3.90471ZM21.6401 26.7082C21.6401 26.8402 21.6051 26.959 21.5349 27.0645C21.4648 27.1569 21.342 27.2361 21.1667 27.3021C21.003 27.368 20.7809 27.4142 20.5003 27.4406C20.2197 27.4802 19.8631 27.5 19.4306 27.5C18.998 27.5 18.6414 27.4802 18.3609 27.4406C18.0803 27.4142 17.8523 27.368 17.677 27.3021C17.5133 27.2361 17.3964 27.1569 17.3262 27.0645C17.2561 26.959 17.221 26.8402 17.221 26.7082V9.09092C17.221 8.95891 17.2561 8.8468 17.3262 8.75438C17.3964 8.64885 17.5133 8.56302 17.677 8.49708C17.8523 8.4179 18.0803 8.35848 18.3609 8.31889C18.6414 8.27931 18.998 8.25954 19.4306 8.25954C19.8631 8.25954 20.2197 8.27931 20.5003 8.31889C20.7809 8.35848 21.003 8.4179 21.1667 8.49708C21.342 8.56302 21.4648 8.64885 21.5349 8.75438C21.6051 8.8468 21.6401 8.95891 21.6401 9.09092V26.7082ZM21.9733 3.07333C21.9733 4.07624 21.7921 4.76909 21.4297 5.15174C21.0673 5.53443 20.3951 5.72582 19.413 5.72582C18.4193 5.72582 17.7471 5.54108 17.3964 5.17157C17.0574 4.80202 16.8878 4.13562 16.8878 3.17227C16.8878 2.16936 17.0632 1.47654 17.4139 1.09384C17.7763 0.697947 18.4544 0.5 19.4481 0.5C20.4301 0.5 21.0965 0.69135 21.4472 1.07405C21.798 1.44355 21.9733 2.10997 21.9733 3.07333ZM41 26.7082C41 26.8402 40.9652 26.959 40.8951 27.0645C40.8249 27.1569 40.7079 27.2361 40.5443 27.3021C40.3805 27.368 40.1527 27.4142 39.8606 27.4406C39.58 27.4802 39.2293 27.5 38.8084 27.5C38.3757 27.5 38.0129 27.4802 37.7206 27.4406C37.44 27.4142 37.2183 27.368 37.0548 27.3021C36.8909 27.2361 36.7742 27.1569 36.704 27.0645C36.6339 26.959 36.5983 26.8402 36.5983 26.7082V16.6327C36.5983 15.7749 36.5402 15.1019 36.4235 14.6136C36.318 14.1253 36.16 13.7096 35.9496 13.3666C35.7391 13.0103 35.4644 12.7397 35.1252 12.555C34.7981 12.357 34.4126 12.2581 33.9684 12.2581C33.4072 12.2581 32.8402 12.489 32.2672 12.9509C31.694 13.4127 31.0978 14.0858 30.4783 14.9699V26.7082C30.4783 26.8402 30.4435 26.959 30.3733 27.0645C30.3032 27.1569 30.1806 27.2361 30.0052 27.3021C29.8413 27.368 29.6194 27.4142 29.3388 27.4406C29.0582 27.4802 28.7016 27.5 28.269 27.5C27.836 27.5 27.48 27.4802 27.1993 27.4406C26.9187 27.4142 26.6906 27.368 26.5152 27.3021C26.3516 27.2361 26.2346 27.1569 26.1645 27.0645C26.0943 26.959 26.0593 26.8402 26.0593 26.7082V9.05133C26.0593 8.91932 26.0885 8.80721 26.1468 8.71479C26.2055 8.60926 26.3107 8.52343 26.4627 8.45749C26.6145 8.39152 26.8076 8.34531 27.0413 8.31889C27.2868 8.27931 27.5905 8.25954 27.953 8.25954C28.3271 8.25954 28.6371 8.27931 28.8823 8.31889C29.1281 8.34531 29.315 8.39152 29.4435 8.45749C29.5838 8.52343 29.6834 8.60926 29.742 8.71479C29.8004 8.80721 29.8298 8.91932 29.8298 9.05133V11.0902C30.6949 10.0344 31.5714 9.24269 32.4597 8.71479C33.3601 8.18692 34.2953 7.923 35.2655 7.923C36.3295 7.923 37.2242 8.12095 37.949 8.51684C38.6852 8.91274 39.2758 9.45381 39.7203 10.14C40.1759 10.813 40.5034 11.6048 40.7023 12.5154C40.901 13.4259 41 14.5213 41 15.8013V26.7082Z" fill="#109CF1"/>
</g>
<g filter="url(#filter1_d_127_1809)">
<path d="M60.9963 23.3212C60.9963 23.6392 60.9844 23.9127 60.9608 24.1417C60.9489 24.3579 60.9253 24.5488 60.8898 24.7141C60.8543 24.8668 60.8068 25.0004 60.7477 25.1148C60.6886 25.2293 60.5937 25.3629 60.4635 25.5156C60.3334 25.6555 60.0785 25.8399 59.6995 26.0689C59.3326 26.2979 58.8771 26.5205 58.3324 26.7368C57.7996 26.9403 57.1839 27.112 56.4854 27.2519C55.7986 27.3919 55.0527 27.4618 54.2477 27.4618C52.6729 27.4618 51.2522 27.201 49.9854 26.6795C48.7186 26.158 47.6411 25.382 46.7532 24.3516C45.8652 23.3085 45.1843 22.0109 44.7104 20.459C44.237 18.9071 44 17.1007 44 15.0399C44 12.941 44.2609 11.0774 44.7814 9.44912C45.3026 7.82086 46.0308 6.45336 46.9663 5.34664C47.9017 4.23993 49.0201 3.40035 50.3224 2.82792C51.6369 2.25548 53.0815 1.96926 54.6557 1.96926C55.2951 1.96926 55.9111 2.0265 56.5027 2.14099C57.0952 2.25548 57.6393 2.40813 58.1366 2.59894C58.6461 2.77702 59.1019 2.98692 59.5045 3.22862C59.9072 3.47033 60.1851 3.68022 60.3388 3.8583C60.5047 4.02369 60.6176 4.1636 60.6767 4.27809C60.7358 4.39258 60.7832 4.53888 60.8187 4.71696C60.8543 4.89504 60.8778 5.10494 60.8898 5.34664C60.9134 5.58835 60.9253 5.88727 60.9253 6.24346C60.9253 6.62509 60.9134 6.94947 60.8898 7.21661C60.8662 7.48375 60.8247 7.69999 60.765 7.86537C60.7059 8.03075 60.6349 8.15159 60.5519 8.22792C60.4692 8.30424 60.3746 8.3424 60.2678 8.3424C60.0904 8.3424 59.8657 8.23427 59.5935 8.01802C59.321 7.78905 58.9658 7.54099 58.5279 7.27385C58.1017 6.99398 57.5865 6.74593 56.9827 6.52968C56.3908 6.30071 55.6804 6.18622 54.8515 6.18622C53.94 6.18622 53.123 6.38976 52.4007 6.79682C51.6903 7.19118 51.0805 7.76362 50.5716 8.51414C50.0743 9.25196 49.6953 10.1488 49.435 11.2046C49.1744 12.2604 49.0437 13.4498 49.0437 14.7728C49.0437 16.223 49.1804 17.4823 49.4526 18.5509C49.7368 19.6067 50.1334 20.4781 50.6426 21.165C51.1635 21.8519 51.7849 22.3671 52.5073 22.7106C53.2412 23.0413 54.0641 23.2067 54.976 23.2067C55.8046 23.2067 56.5209 23.105 57.1247 22.9014C57.7286 22.6852 58.2437 22.4498 58.67 22.1954C59.1078 21.941 59.463 21.712 59.7355 21.5085C60.0197 21.3049 60.2385 21.2032 60.3925 21.2032C60.511 21.2032 60.6056 21.2286 60.6767 21.2795C60.7477 21.3304 60.8068 21.4322 60.8543 21.5848C60.9017 21.7375 60.9372 21.9537 60.9608 22.2336C60.9844 22.5007 60.9963 22.8633 60.9963 23.3212ZM77.5838 26.4696C77.5838 26.6477 77.5247 26.7876 77.4062 26.8894C77.2877 26.9912 77.0984 27.0611 76.8379 27.0993C76.5892 27.1502 76.2161 27.1756 75.7189 27.1756C75.1858 27.1756 74.7956 27.1502 74.5467 27.0993C74.31 27.0611 74.1384 26.9912 74.0319 26.8894C73.9372 26.7876 73.8898 26.6477 73.8898 26.4696V25.1148C73.2385 25.8654 72.4926 26.4505 71.6521 26.8703C70.8232 27.2901 69.8997 27.5 68.8816 27.5C68.0411 27.5 67.2656 27.3792 66.5552 27.1375C65.8565 26.9085 65.2467 26.565 64.7258 26.1071C64.2166 25.6364 63.8197 25.0576 63.5355 24.3707C63.2514 23.6837 63.1093 22.8823 63.1093 21.9664C63.1093 20.9742 63.2875 20.1155 63.6426 19.3905C64.0095 18.6526 64.5482 18.0484 65.2586 17.5777C65.9809 17.0944 66.8743 16.7382 67.9399 16.5092C69.0055 16.2802 70.2432 16.1657 71.6521 16.1657H73.197V15.1353C73.197 14.6011 73.1439 14.1368 73.0373 13.7424C72.9427 13.3353 72.7767 12.9982 72.54 12.7311C72.315 12.464 72.0073 12.2668 71.6166 12.1396C71.2378 12.0124 70.7641 11.9488 70.1958 11.9488C69.4499 11.9488 68.781 12.0378 68.1891 12.2159C67.6089 12.394 67.0937 12.5912 66.6439 12.8074C66.1941 13.0237 65.815 13.2209 65.5073 13.3989C65.2112 13.577 64.9685 13.6661 64.7793 13.6661C64.6488 13.6661 64.5303 13.6216 64.4241 13.5325C64.3292 13.4435 64.2459 13.3163 64.1749 13.1509C64.1158 12.9855 64.0689 12.782 64.0328 12.5403C63.9978 12.2986 63.9799 12.0314 63.9799 11.7389C63.9799 11.3445 64.0095 11.0329 64.0689 10.8039C64.128 10.5749 64.2405 10.3714 64.4062 10.1933C64.5718 10.0025 64.8619 9.79893 65.2765 9.58269C65.6908 9.35371 66.1762 9.14382 66.7322 8.953C67.2889 8.76219 67.893 8.60954 68.5443 8.49505C69.2072 8.36784 69.888 8.30424 70.5865 8.30424C71.8297 8.30424 72.8893 8.43781 73.7653 8.70495C74.6536 8.95935 75.3816 9.36006 75.9499 9.90707C76.5182 10.4413 76.9325 11.1346 77.1931 11.9869C77.4536 12.8392 77.5838 13.8505 77.5838 15.0208V26.4696ZM73.197 19.1806H71.4921C70.7701 19.1806 70.1543 19.2378 69.6451 19.3523C69.1362 19.4668 68.7216 19.6385 68.4022 19.8675C68.0823 20.0965 67.8456 20.3763 67.6918 20.7071C67.5497 21.0251 67.4787 21.394 67.4787 21.8138C67.4787 22.5261 67.6859 23.0859 68.1002 23.4929C68.5264 23.9 69.1126 24.1035 69.8582 24.1035C70.4859 24.1035 71.0602 23.9318 71.581 23.5883C72.1138 23.2449 72.6526 22.7424 73.197 22.0809V19.1806ZM86.5346 26.4124C86.5346 26.5396 86.4991 26.6541 86.428 26.7558C86.357 26.8449 86.2328 26.9212 86.0549 26.9848C85.8893 27.0484 85.6642 27.0929 85.3801 27.1184C85.0959 27.1565 84.735 27.1756 84.2969 27.1756C83.8587 27.1756 83.4976 27.1565 83.2134 27.1184C82.9292 27.0929 82.6985 27.0484 82.5209 26.9848C82.3553 26.9212 82.2368 26.8449 82.1657 26.7558C82.0947 26.6541 82.0592 26.5396 82.0592 26.4124V1.32049C82.0592 1.19329 82.0947 1.0788 82.1657 0.977032C82.2368 0.875266 82.3553 0.792579 82.5209 0.728975C82.6985 0.65265 82.9292 0.595406 83.2134 0.557244C83.4976 0.519081 83.8587 0.5 84.2969 0.5C84.735 0.5 85.0959 0.519081 85.3801 0.557244C85.6642 0.595406 85.8893 0.65265 86.0549 0.728975C86.2328 0.792579 86.357 0.875266 86.428 0.977032C86.4991 1.0788 86.5346 1.19329 86.5346 1.32049V26.4124ZM95.4854 26.4124C95.4854 26.5396 95.4499 26.6541 95.3788 26.7558C95.3078 26.8449 95.1836 26.9212 95.0057 26.9848C94.8401 27.0484 94.615 27.0929 94.3309 27.1184C94.0467 27.1565 93.6859 27.1756 93.2477 27.1756C92.8095 27.1756 92.4484 27.1565 92.1642 27.1184C91.8801 27.0929 91.6493 27.0484 91.4717 26.9848C91.3061 26.9212 91.1876 26.8449 91.1166 26.7558C91.0455 26.6541 91.01 26.5396 91.01 26.4124V9.43004C91.01 9.30282 91.0455 9.19471 91.1166 9.10565C91.1876 9.0039 91.3061 8.92119 91.4717 8.8576C91.6493 8.78127 91.8801 8.72403 92.1642 8.68587C92.4484 8.6477 92.8095 8.62862 93.2477 8.62862C93.6859 8.62862 94.0467 8.6477 94.3309 8.68587C94.615 8.72403 94.8401 8.78127 95.0057 8.8576C95.1836 8.92119 95.3078 9.0039 95.3788 9.10565C95.4499 9.19471 95.4854 9.30282 95.4854 9.43004V26.4124ZM95.8227 3.62933C95.8227 4.59612 95.6394 5.26397 95.2723 5.63286C94.9052 6.00176 94.2243 6.18622 93.2298 6.18622C92.2236 6.18622 91.5428 6.00814 91.1876 5.65194C90.8443 5.29575 90.6724 4.65337 90.6724 3.72474C90.6724 2.75794 90.85 2.0901 91.2052 1.7212C91.572 1.33958 92.2588 1.14876 93.2653 1.14876C94.2598 1.14876 94.9347 1.33322 95.2899 1.70212C95.6451 2.05831 95.8227 2.7007 95.8227 3.62933ZM115.909 17.6731C115.909 19.1869 115.755 20.5481 115.447 21.7565C115.139 22.965 114.695 23.9954 114.115 24.8477C113.535 25.7 112.819 26.3551 111.966 26.8131C111.126 27.271 110.167 27.5 109.089 27.5C108.556 27.5 108.059 27.4428 107.597 27.3283C107.136 27.2265 106.692 27.0548 106.265 26.8131C105.851 26.5714 105.437 26.2661 105.022 25.8972C104.62 25.5283 104.205 25.083 103.779 24.5615V26.4124C103.779 26.5523 103.743 26.6732 103.672 26.7749C103.613 26.864 103.506 26.9403 103.353 27.0039C103.211 27.0675 103.015 27.112 102.767 27.1375C102.518 27.1629 102.216 27.1756 101.861 27.1756C101.494 27.1756 101.186 27.1629 100.937 27.1375C100.7 27.112 100.506 27.0675 100.352 27.0039C100.209 26.9403 100.109 26.864 100.049 26.7749C99.9904 26.6732 99.9608 26.5523 99.9608 26.4124V1.32049C99.9608 1.19329 99.9963 1.0788 100.067 0.977032C100.138 0.875266 100.257 0.792579 100.423 0.728975C100.6 0.65265 100.831 0.595406 101.115 0.557244C101.399 0.519081 101.76 0.5 102.199 0.5C102.637 0.5 102.998 0.519081 103.282 0.557244C103.566 0.595406 103.791 0.65265 103.957 0.728975C104.134 0.792579 104.259 0.875266 104.33 0.977032C104.401 1.0788 104.436 1.19329 104.436 1.32049V10.7276C104.839 10.295 105.241 9.92615 105.644 9.62085C106.047 9.31555 106.449 9.06749 106.852 8.87668C107.254 8.67313 107.668 8.52687 108.095 8.43781C108.521 8.34875 108.971 8.30424 109.444 8.30424C110.617 8.30424 111.611 8.55865 112.428 9.06749C113.245 9.5636 113.908 10.2378 114.417 11.0901C114.938 11.9424 115.317 12.941 115.554 14.0859C115.79 15.218 115.909 16.4138 115.909 17.6731ZM111.274 18.0166C111.274 17.2915 111.22 16.5919 111.114 15.9177C111.019 15.2435 110.847 14.6456 110.599 14.124C110.35 13.6025 110.025 13.189 109.622 12.8837C109.231 12.5657 108.734 12.4067 108.13 12.4067C107.834 12.4067 107.544 12.4512 107.26 12.5403C106.976 12.6293 106.68 12.782 106.372 12.9982C106.076 13.2145 105.768 13.4943 105.448 13.8378C105.129 14.1813 104.791 14.6074 104.436 15.1163V20.7643C105.064 21.6293 105.661 22.2908 106.23 22.7488C106.81 23.194 107.414 23.4166 108.041 23.4166C108.621 23.4166 109.113 23.2576 109.515 22.9396C109.918 22.6215 110.249 22.2081 110.51 21.6993C110.782 21.1904 110.977 20.6117 111.096 19.9629C111.214 19.3141 111.274 18.6654 111.274 18.0166ZM134.13 17.406C134.13 17.9912 134.005 18.4237 133.757 18.7035C133.52 18.9834 133.189 19.1233 132.763 19.1233H123.119C123.119 19.8484 123.196 20.5099 123.35 21.1078C123.516 21.6929 123.77 22.1954 124.114 22.6152C124.469 23.0223 124.919 23.3339 125.463 23.5502C126.02 23.7664 126.683 23.8746 127.452 23.8746C128.234 23.8746 128.921 23.8173 129.512 23.7028C130.104 23.5756 130.614 23.442 131.04 23.3021C131.478 23.1495 131.839 23.0159 132.123 22.9014C132.407 22.7742 132.638 22.7106 132.816 22.7106C132.922 22.7106 133.011 22.736 133.082 22.7869C133.153 22.8251 133.212 22.9014 133.26 23.0159C133.307 23.1304 133.337 23.2958 133.349 23.512C133.372 23.7156 133.384 23.9763 133.384 24.2943C133.384 24.5742 133.378 24.8159 133.366 25.0194C133.354 25.2102 133.337 25.3756 133.313 25.5156C133.289 25.6555 133.254 25.7763 133.206 25.8781C133.159 25.9671 133.094 26.0562 133.011 26.1452C132.94 26.2343 132.733 26.3551 132.389 26.5078C132.046 26.6604 131.608 26.8131 131.075 26.9657C130.542 27.1056 129.933 27.2265 129.246 27.3283C128.56 27.4428 127.825 27.5 127.044 27.5C125.635 27.5 124.398 27.3092 123.332 26.9276C122.278 26.5459 121.396 25.9672 120.686 25.1912C119.976 24.4152 119.443 23.4357 119.087 22.2527C118.744 21.0696 118.573 19.683 118.573 18.0929C118.573 16.5792 118.756 15.218 119.123 14.0095C119.49 12.7883 120.023 11.758 120.721 10.9184C121.42 10.0661 122.267 9.4173 123.261 8.97208C124.268 8.52687 125.398 8.30424 126.653 8.30424C127.979 8.30424 129.11 8.51413 130.045 8.93392C130.992 9.35371 131.768 9.93888 132.372 10.6894C132.976 11.4272 133.42 12.305 133.704 13.3226C133.988 14.3403 134.13 15.447 134.13 16.6428V17.406ZM129.797 16.0322C129.832 14.6837 129.578 13.6279 129.033 12.8647C128.501 12.0887 127.672 11.7007 126.546 11.7007C125.978 11.7007 125.481 11.8152 125.055 12.0442C124.641 12.2731 124.291 12.5848 124.007 12.9792C123.735 13.3608 123.522 13.8187 123.368 14.353C123.226 14.8745 123.143 15.4343 123.119 16.0322H129.797ZM148 10.9756C148 11.4336 147.988 11.8088 147.965 12.1014C147.941 12.394 147.905 12.623 147.858 12.7883C147.811 12.9537 147.746 13.0682 147.663 13.1318C147.592 13.1954 147.497 13.2272 147.379 13.2272C147.284 13.2272 147.177 13.2081 147.059 13.17C146.94 13.1191 146.804 13.0682 146.65 13.0173C146.508 12.9664 146.349 12.9219 146.171 12.8837C145.993 12.8329 145.798 12.8074 145.585 12.8074C145.336 12.8074 145.087 12.8647 144.839 12.9792C144.59 13.0809 144.33 13.2463 144.058 13.4753C143.797 13.7042 143.519 14.0095 143.223 14.3912C142.939 14.7728 142.631 15.2435 142.299 15.8032V26.4124C142.299 26.5396 142.264 26.6541 142.193 26.7558C142.122 26.8449 141.998 26.9212 141.82 26.9848C141.654 27.0484 141.429 27.0929 141.145 27.1184C140.861 27.1565 140.5 27.1756 140.062 27.1756C139.623 27.1756 139.262 27.1565 138.978 27.1184C138.694 27.0929 138.463 27.0484 138.286 26.9848C138.12 26.9212 138.002 26.8449 137.93 26.7558C137.859 26.6541 137.824 26.5396 137.824 26.4124V9.39187C137.824 9.26466 137.853 9.15655 137.913 9.06749C137.972 8.96574 138.078 8.88303 138.233 8.81944C138.386 8.75584 138.582 8.7113 138.818 8.68587C139.067 8.6477 139.375 8.62862 139.742 8.62862C140.121 8.62862 140.435 8.6477 140.683 8.68587C140.932 8.7113 141.121 8.75584 141.251 8.81944C141.393 8.88303 141.494 8.96574 141.553 9.06749C141.613 9.15655 141.642 9.26466 141.642 9.39187V11.5099C142.057 10.8739 142.447 10.3523 142.814 9.94523C143.182 9.52544 143.531 9.19471 143.862 8.953C144.194 8.7113 144.525 8.54595 144.857 8.45689C145.188 8.35513 145.52 8.30424 145.851 8.30424C146.005 8.30424 146.171 8.31697 146.349 8.3424C146.526 8.35513 146.71 8.38692 146.899 8.43781C147.088 8.47597 147.254 8.52687 147.396 8.59046C147.539 8.64135 147.639 8.6986 147.698 8.76219C147.769 8.82579 147.817 8.89576 147.84 8.97208C147.876 9.04841 147.906 9.15655 147.929 9.29647C147.953 9.42369 147.97 9.62085 147.982 9.88799C147.994 10.1551 148 10.5177 148 10.9756Z" fill="#F9BF51"/>
</g>
<defs>
<filter id="filter0_d_127_1809" x="0" y="0.5" width="42" height="29" filterUnits="userSpaceOnUse" color-interpolation-filters="sRGB">
<feFlood flood-opacity="0" result="BackgroundImageFix"/>
<feColorMatrix in="SourceAlpha" type="matrix" values="0 0 0 0 0 0 0 0 0 0 0 0 0 0 0 0 0 0 127 0" result="hardAlpha"/>
<feOffset dy="1"/>
<feGaussianBlur stdDeviation="0.5"/>
<feComposite in2="hardAlpha" operator="out"/>
<feColorMatrix type="matrix" values="0 0 0 0 0 0 0 0 0 0 0 0 0 0 0 0 0 0 0.5 0"/>
<feBlend mode="normal" in2="BackgroundImageFix" result="effect1_dropShadow_127_1809"/>
<feBlend mode="normal" in="SourceGraphic" in2="effect1_dropShadow_127_1809" result="shape"/>
</filter>
<filter id="filter1_d_127_1809" x="43" y="0.5" width="106" height="29" filterUnits="userSpaceOnUse" color-interpolation-filters="sRGB">
<feFlood flood-opacity="0" result="BackgroundImageFix"/>
<feColorMatrix in="SourceAlpha" type="matrix" values="0 0 0 0 0 0 0 0 0 0 0 0 0 0 0 0 0 0 127 0" result="hardAlpha"/>
<feOffset dy="1"/>
<feGaussianBlur stdDeviation="0.5"/>
<feComposite in2="hardAlpha" operator="out"/>
<feColorMatrix type="matrix" values="0 0 0 0 0 0 0 0 0 0 0 0 0 0 0 0 0 0 0.5 0"/>
<feBlend mode="normal" in2="BackgroundImageFix" result="effect1_dropShadow_127_1809"/>
<feBlend mode="normal" in="SourceGraphic" in2="effect1_dropShadow_127_1809" result="shape"/>
</filter>
</defs>
</svg>
